<?xml version="1.0" encoding="UTF-8"?>
<svg version="1.1" xmlns="http://www.w3.org/2000/svg" width="605" height="351">
<path d="M0 0 C0.66 0.33 1.32 0.66 2 1 C2.60796369 3.17000903 3.13419039 5.36303076 3.625 7.5625 C7.28589019 22.26462079 14.15212286 33.54516189 25 44 C26.02480469 45.05380859 26.02480469 45.05380859 27.0703125 46.12890625 C40.9695956 59.6193869 60.86153386 68.47243159 78.796875 75.1796875 C79.83500336 75.56825928 80.87313171 75.95683105 81.94271851 76.35717773 C95.536102 81.38212528 109.35300225 85.73112116 123.16015625 90.125 C166.7124621 104.01543642 166.7124621 104.01543642 180 114 C180.60714844 114.42796875 181.21429688 114.8559375 181.83984375 115.296875 C186.44606419 118.76561802 189.09652739 122.98842465 190.75 128.5 C191.50939579 136.09395792 190.9148018 141.89277928 186.453125 148.1796875 C182.26197787 153.24244488 178.45114119 156.5471907 171.6953125 157.43359375 C146.18833015 157.46150073 123.54047132 144.84859199 101.13574219 133.89257812 C37.55049578 100.77414378 37.55049578 100.77414378 -31.8125 99.1875 C-33.3903125 99.5896875 -33.3903125 99.5896875 -35 100 C-36.89923429 98.10076571 -36.35555849 94.79179747 -36.49438477 92.25561523 C-36.53308182 91.5496521 -36.57177887 90.84368896 -36.61164856 90.11633301 C-36.95312998 83.55117051 -37.16060187 76.98225882 -37.32562351 70.41050625 C-37.43908617 65.9993442 -37.59694144 61.60022345 -37.86547852 57.19555664 C-39.54659328 28.90369673 -39.54659328 28.90369673 -33.75701904 20.89874268 C-28.25259916 15.78729772 -22.04434127 12.55066997 -15.21505737 9.540802 C-9.77006563 6.93131383 -4.92928396 3.47196764 0 0 Z " fill="#000000" transform="translate(51,78)"/>
<path d="M0 0 C5.78749066 2.90085343 11.47082937 5.98606638 17.15258789 9.08789062 C43.49156708 23.46311654 69.87998798 32.83047219 99.25 39.25 C99.25 39.91 99.25 40.57 99.25 41.25 C96.91932443 42.90596026 94.58454406 44.43621469 92.16015625 45.9453125 C90.58929098 46.94190691 89.01917937 47.93968995 87.44970703 48.93847656 C86.6059552 49.47363892 85.76220337 50.00880127 84.8928833 50.56018066 C80.31208386 53.48907407 75.78089889 56.49276953 71.24609375 59.4921875 C69.3327054 60.75524334 67.41929372 62.01826385 65.50585938 63.28125 C62.57655317 65.21618644 59.64746631 67.1514543 56.71850586 69.08691406 C53.83240531 70.99365288 50.94553059 72.89921521 48.05859375 74.8046875 C47.19076767 75.37871307 46.32294159 75.95273865 45.42881775 76.54415894 C43.80325219 77.61689516 42.17407221 78.68418131 40.54074097 79.74505615 C39.01194474 80.74942658 37.4991626 81.77860014 36.00344849 82.831604 C35.30500824 83.30885925 34.60656799 83.7861145 33.88696289 84.27783203 C33.27937637 84.70693878 32.67178986 85.13604553 32.04579163 85.57815552 C30.25 86.25 30.25 86.25 28.13938904 85.48434448 C25.86632155 83.99934153 24.22431046 82.30212779 22.375 80.3125 C17.02710343 74.85100432 11.17470594 70.25201213 5.09277344 65.6484375 C3.31471241 64.29910873 1.55175125 62.93181187 -0.2109375 61.5625 C-14.27627809 50.79025855 -29.81337443 42.3270952 -45.375 33.9375 C-81.96540391 14.19865363 -81.96540391 14.19865363 -86.75 -1.75 C-87.38823149 -7.14738977 -87.45759086 -11.33481828 -85 -16.25 C-66.21375824 -37.12360195 -19.1567072 -9.49228687 0 0 Z " fill="#000000" transform="translate(107.75,241.75)"/>
<path d="M0 0 C2.43408203 1.29663086 2.43408203 1.29663086 5.0078125 2.96484375 C5.98089355 3.59100586 6.95397461 4.21716797 7.95654297 4.86230469 C9.00213379 5.54711914 10.04772461 6.23193359 11.125 6.9375 C12.22086426 7.64680664 13.31672852 8.35611328 14.44580078 9.08691406 C23.69136761 15.0816954 32.8611157 21.19417923 41.99658203 27.35522461 C45.3189724 29.58877965 48.65290584 31.80371053 52 34 C53.0236113 34.67178787 53.0236113 34.67178787 54.06790161 35.35714722 C62.2833177 40.71818857 70.51974548 45.82533415 79.2414856 50.32681274 C109.64090694 66.1515728 109.64090694 66.1515728 114.14080811 76.66546631 C117.66881742 89.70922022 115.48548317 103.93710166 113 117 C109.60782286 116.42982382 106.86609476 115.60220364 103.81665039 114.02026367 C103.01746689 113.61697342 102.21828339 113.21368317 101.3948822 112.798172 C100.53367264 112.36332993 99.67246307 111.92848785 98.78515625 111.48046875 C86.70858798 105.56551648 74.22025592 101.41266508 61.4375 97.3125 C59.24500307 96.59965808 57.05294388 95.88546837 54.86132812 95.16992188 C53.78517746 94.81859192 52.70902679 94.46726196 51.6002655 94.10528564 C50.53463882 93.75729919 49.46901215 93.40931274 48.37109375 93.05078125 C47.31904251 92.70795105 46.26699127 92.36512085 45.18305969 92.01190186 C15.21062943 82.22862035 15.21062943 82.22862035 4.9375 76.625 C4.06464355 76.15586182 3.19178711 75.68672363 2.29248047 75.20336914 C-9.75561278 68.56556446 -21.10218458 59.9068079 -25.5 46.24609375 C-27.95345653 35.22470701 -27.51197054 24.39846678 -21.5625 14.5625 C-20.72613742 13.36239393 -19.87371303 12.17319328 -19 11 C-18.401875 10.13375 -17.80375 9.2675 -17.1875 8.375 C-12.44684496 3.2280031 -7.17160969 -1.99515354 0 0 Z " fill="#000000" transform="translate(134,29)"/>
<path d="M0 0 C8.91 0 17.82 0 27 0 C27.66 20.13 28.32 40.26 29 61 C40.80845752 50.16277663 40.80845752 50.16277663 51 38 C53.69540315 37.73313787 56.15847464 37.65181927 58.8515625 37.70703125 C59.62559418 37.71127609 60.39962585 37.71552094 61.19711304 37.71989441 C63.67342677 37.73671002 66.14893158 37.77436605 68.625 37.8125 C70.30207159 37.82754318 71.97915592 37.84123222 73.65625 37.85351562 C77.77114581 37.88662279 81.88543569 37.93842363 86 38 C84.68610661 40.88915055 83.25929135 43.00516655 81.05859375 45.28515625 C80.47907959 45.89302979 79.89956543 46.50090332 79.30249023 47.12719727 C78.68704346 47.76584717 78.07159668 48.40449707 77.4375 49.0625 C72.3292391 54.44295721 67.45386038 59.88294932 62.84765625 65.703125 C61.26454396 67.67113774 59.60832952 69.47998814 57.875 71.3125 C55.69474298 73.84217922 55.69474298 73.84217922 56.18212891 76.8269043 C57.06305924 80.24465103 58.28028814 82.51191531 60.2109375 85.45703125 C60.87391846 86.47958008 61.53689941 87.50212891 62.2199707 88.55566406 C63.28671021 90.16779785 63.28671021 90.16779785 64.375 91.8125 C65.10407581 92.93003374 65.83217816 94.04820313 66.55932617 95.16699219 C68.01365885 97.40148689 69.47414675 99.63153845 70.93798828 101.85986328 C73.27803075 105.42339943 75.59727834 108.99992338 77.91064453 112.58081055 C78.81706547 113.98337934 79.72546127 115.3846747 80.63623047 116.78442383 C81.76380392 118.51885884 82.88234583 120.25915657 84 122 C84.59167969 122.91265625 85.18335938 123.8253125 85.79296875 124.765625 C87 127 87 127 87 130 C60.33949003 132.51925589 60.33949003 132.51925589 53.71142578 128.67138672 C50.3061235 125.13872674 48.63110939 120.82054148 46.94238281 116.27636719 C45.32896744 112.37909129 42.94288393 109.02530011 40.5625 105.5625 C40.14766357 104.91853271 39.73282715 104.27456543 39.30541992 103.61108398 C36.91913107 99.88554051 36.91913107 99.88554051 33 98 C27.91411404 103.72679028 28.13544633 109.99032329 27.75 117.375 C27.5025 121.54125 27.255 125.7075 27 130 C18.09 130 9.18 130 0 130 C0 87.1 0 44.2 0 0 Z " fill="#000000" transform="translate(460,102)"/>
<path d="M0 0 C7.89179732 5.85740666 12.13567308 11.56135751 13.82788086 21.25634766 C14.59022461 27.31959953 14.62974659 33.38096194 14.62841797 39.48266602 C14.63281302 41.7385496 14.66932052 43.99250441 14.70703125 46.24804688 C14.79209882 57.22561327 13.18012948 67.45031438 5.2578125 75.67578125 C-6.62737654 85.46219683 -19.72773793 87.49145557 -34.7421875 86.67578125 C-45.96924288 85.08730099 -56.24437093 80.63354433 -63.375 71.609375 C-69.91592231 62.35864201 -68.95335659 51.33802429 -68.98242188 40.44702148 C-68.99215248 38.24620094 -69.02327485 36.04630676 -69.0546875 33.84570312 C-69.15000177 21.55623282 -67.94412726 12.94884274 -59.13671875 3.87109375 C-43.40926617 -10.54787583 -17.63002335 -11.42266786 0 0 Z M-39.4921875 23.42578125 C-42.77005512 29.32594296 -41.79326227 36.78661799 -41.4921875 43.30078125 C-41.45158203 44.69296875 -41.45158203 44.69296875 -41.41015625 46.11328125 C-41.19228263 51.01895185 -41.0211141 54.75971725 -37.7421875 58.67578125 C-32.95041753 61.55084323 -29.4015048 62.12459355 -23.890625 61.25 C-20.55356152 60.35809394 -18.32410099 58.94282724 -15.7421875 56.67578125 C-12.91988826 51.03963457 -13.41207046 45.3417468 -13.4296875 39.17578125 C-13.41357422 38.04785156 -13.39746094 36.91992188 -13.38085938 35.7578125 C-13.38021484 34.66855469 -13.37957031 33.57929688 -13.37890625 32.45703125 C-13.37592529 31.46767578 -13.37294434 30.47832031 -13.36987305 29.45898438 C-13.91527337 25.38189343 -15.65991329 22.74176316 -18.55859375 19.88671875 C-21.396119 18.31313588 -23.44771243 18.27632747 -26.6796875 18.30078125 C-27.69933594 18.29304688 -28.71898437 18.2853125 -29.76953125 18.27734375 C-33.91829595 18.83341997 -36.56009387 20.49368762 -39.4921875 23.42578125 Z " fill="#000000" transform="translate(427.7421875,146.32421875)"/>
<path d="M0 0 C8.91 0 17.82 0 27 0 C27.01981934 2.73458496 27.03963867 5.46916992 27.06005859 8.28662109 C27.12712753 17.34709824 27.20476433 26.40746299 27.28752708 35.46780968 C27.33735775 40.9581693 27.38368855 46.44851091 27.421875 51.93896484 C27.45889541 57.24290082 27.50529992 62.54668105 27.55806351 67.85048294 C27.57651874 69.86851886 27.59165901 71.88658805 27.60334396 73.90467453 C27.62035914 76.74308792 27.6494293 79.58115148 27.68115234 82.41943359 C27.68331253 83.24374878 27.68547272 84.06806396 27.68769836 84.9173584 C27.721296 87.28846983 27.83546698 89.63448425 28 92 C28.04940357 92.88345722 28.09880714 93.76691444 28.14970779 94.6771431 C28.40978655 97.73471344 28.40978655 97.73471344 30 102 C32.97 103.32 35.94 104.64 39 106 C39 114.58 39 123.16 39 132 C25.59616255 129.92009419 12.77310047 127.37158477 4 116 C0.95758728 110.92931213 -0.1272845 106.28255843 -0.12025452 100.41252136 C-0.12162918 99.52216187 -0.12300385 98.63180237 -0.12442017 97.71446228 C-0.11902725 96.26868553 -0.11902725 96.26868553 -0.11352539 94.79370117 C-0.11367142 93.76884613 -0.11381744 92.74399109 -0.1139679 91.68807983 C-0.11327218 88.30635448 -0.1054957 84.92468446 -0.09765625 81.54296875 C-0.09579086 79.19598928 -0.09436753 76.84900942 -0.09336853 74.50202942 C-0.08955289 68.32889732 -0.07973071 62.1557888 -0.06866455 55.98266602 C-0.05842996 49.68180663 -0.05386652 43.38094343 -0.04882812 37.08007812 C-0.03810761 24.72004006 -0.02051849 12.36002568 0 0 Z " fill="#000000" transform="translate(308,102)"/>
<path d="M0 0 C8.91 0 17.82 0 27 0 C27 30.36 27 60.72 27 92 C18.09 92 9.18 92 0 92 C0 61.64 0 31.28 0 0 Z " fill="#000000" transform="translate(560,140)"/>
<path d="M0 0 C4.83652766 2.76373009 8.16264298 6.07002134 9.6875 11.5 C10.33875936 16.05881551 9.376129 19.01423523 7 23 C1.81326264 28.81926631 1.81326264 28.81926631 -2.390625 29.23828125 C-8.4451031 29.395433 -12.33908985 29.31134189 -17 25 C-20.09057893 21.16341926 -21.29823944 16.90739445 -21 12 C-19.36920534 6.68303043 -16.72115051 3.02637853 -12 0 C-7.74140036 -1.41953321 -4.31257801 -1.22421569 0 0 Z " fill="#000000" transform="translate(579,103)"/>
</svg>
